<svg xmlns="http://www.w3.org/2000/svg" viewBox="0 0 256 256">
  <rect width="256" height="256" rx="56" fill="#0a0a0a"/>
  <g transform="translate(40 30) scale(0.83)">
    <path fill="#ffffff" d="M1.18012 118C0.000117425 58.115 47.2001 10.03 109.15 10.915C135.11 10.915 156.94 17.995 174.935 32.45C192.93 46.61 204.435 65.195 210.04 87.91H167.56C159.595 64.015 137.47 48.38 109.15 48.38C89.9751 48.38 73.7501 54.87 61.0651 68.145C48.3801 81.42 41.8901 97.94 41.8901 118C41.8901 138.355 48.0851 154.875 60.7701 168.15C73.4551 181.13 89.6801 187.62 109.15 187.62C137.175 187.62 159.89 172.28 168.15 148.68H211.22C206.205 171.395 194.405 189.685 175.82 203.845C157.235 218.005 135.11 225.085 108.855 225.085C45.7251 225.085 1.18012 179.065 1.18012 118Z"/>
  </g>
</svg>
